<svg version="1.1" id="Layer_1" xmlns="http://www.w3.org/2000/svg" xmlns:xlink="http://www.w3.org/1999/xlink" x="0px" y="0px"
	 width="100%" viewBox="0 0 985 178" enable-background="new 0 0 985 178" xml:space="preserve">
<path fill="#000000" opacity="1.000000" stroke="none" 
	d="
M728.000000,179.000000 
	C485.333344,179.000000 243.166672,179.000000 1.000000,179.000000 
	C1.000000,119.666664 1.000000,60.333332 1.000000,1.000000 
	C329.333344,1.000000 657.666687,1.000000 986.000000,1.000000 
	C986.000000,60.333332 986.000000,119.666664 986.000000,179.000000 
	C900.166687,179.000000 814.333313,179.000000 728.000000,179.000000 
M812.548889,108.140137 
	C812.686523,108.465500 812.824219,108.790863 812.960266,109.881653 
	C812.931335,110.901047 812.902405,111.920448 812.211060,113.482330 
	C812.511902,120.975204 812.812744,128.468079 812.979553,136.389297 
	C812.979553,136.389297 812.943909,136.836655 812.493103,137.083954 
	C812.645630,137.437927 812.798157,137.791916 812.961670,138.504990 
	C812.961670,138.504990 812.954224,138.864166 812.493835,139.089478 
	C812.646606,139.440216 812.799438,139.790955 813.000488,140.588043 
	C813.000488,140.588043 813.153137,141.010254 813.061829,141.626373 
	C813.500305,142.203537 813.938721,142.780701 814.484680,143.529007 
	C814.484680,143.529007 814.667725,143.614578 814.894714,144.191330 
	C819.008667,146.277344 822.060791,145.503510 822.842529,141.269348 
	C823.571838,137.319305 822.890808,133.108856 822.978149,128.194855 
	C823.318542,126.780853 823.990845,125.355049 823.941040,123.954933 
	C823.740540,118.316048 823.469238,112.668167 822.846313,107.065590 
	C822.722778,105.953781 820.934875,105.026978 819.684753,103.224976 
	C820.317505,101.649826 820.806213,99.996696 821.608948,98.513535 
	C824.455566,93.253784 825.034607,85.927803 818.374756,81.296524 
	C819.266846,80.747345 820.794128,80.337448 820.949951,79.626793 
	C822.120117,74.290443 823.376099,68.926949 823.865417,63.505157 
	C824.142029,60.441223 823.160400,57.220131 822.486755,54.126167 
	C821.796204,50.954494 819.105713,50.101414 816.790161,51.396606 
	C814.915100,52.445415 812.885315,54.890862 812.673828,56.900909 
	C812.195129,61.450867 813.518555,66.236137 812.766357,70.699402 
	C811.928711,75.669441 813.540894,78.984543 816.293457,82.172226 
	C811.806763,85.815674 811.018677,91.335800 812.761475,95.683647 
	C814.105835,99.037621 815.324524,101.594337 813.317810,105.320709 
	C813.183777,106.199661 813.049683,107.078621 812.986328,107.991898 
	C812.986328,107.991898 812.952698,107.920837 812.548889,108.140137 
M773.128967,107.922699 
	C773.156494,111.931236 773.184021,115.939774 773.053467,120.879852 
	C773.044922,126.693039 772.994446,132.506546 773.038879,138.319321 
	C773.089722,144.971451 775.744690,146.565872 782.705566,143.351837 
	C783.121277,141.964462 783.887756,140.579010 783.895386,139.189362 
	C783.943665,130.441437 783.823364,121.692574 783.886536,112.133217 
	C783.836670,110.768463 783.786804,109.403709 783.852600,107.313461 
	C781.289978,103.360756 780.825134,99.876938 783.408508,95.199219 
	C785.122559,92.095459 785.459229,87.170662 781.418640,83.793823 
	C780.587830,83.099472 781.194763,80.684631 781.633972,78.791870 
	C782.107117,78.215576 782.580200,77.639282 783.667847,76.481529 
	C783.668213,71.273384 783.668640,66.065231 783.788635,60.042583 
	C783.808960,59.378292 783.816406,58.713318 783.851685,58.049820 
	C784.068542,53.969929 782.576538,51.040462 778.113220,51.159206 
	C773.882751,51.271751 772.784302,54.293648 772.944885,58.032986 
	C773.073120,61.018711 773.125549,64.007698 773.064270,67.891991 
	C773.697693,71.600014 774.331177,75.308029 775.266113,79.634872 
	C774.796997,81.716713 774.327881,83.798546 773.210693,86.417053 
	C773.570618,90.247597 773.930603,94.078140 774.406982,98.630722 
	C774.188110,100.723221 773.969177,102.815727 773.241516,105.240654 
	C773.247498,105.828827 773.253479,106.417007 773.128967,107.922699 
M792.073792,95.402977 
	C792.485901,98.013527 792.898010,100.624084 792.940430,103.901039 
	C792.424438,105.919304 791.506470,107.928825 791.462341,109.957344 
	C791.273926,118.619133 791.295166,127.286896 791.359436,135.951584 
	C791.372498,137.707809 791.854553,139.470139 792.205627,141.212463 
	C793.196167,146.128311 797.271423,146.279587 800.727051,145.731522 
	C803.791626,145.245468 805.073792,142.432297 805.024109,139.049850 
	C804.882141,129.385788 804.868347,119.716255 805.042480,110.053177 
	C805.100708,106.826691 804.689453,104.043221 802.061646,101.188141 
	C802.346558,99.763504 802.631409,98.338860 803.278931,96.189140 
	C804.426636,91.649033 805.341919,87.133972 801.927429,82.271545 
	C801.945679,81.174713 801.963989,80.077888 802.638428,78.621376 
	C803.405762,75.715630 804.578674,72.846344 804.844055,69.895462 
	C805.228638,65.618759 804.416382,61.193829 805.109131,56.996254 
	C805.885925,52.289574 802.815125,50.370995 799.841736,49.345425 
	C796.239441,48.102970 793.073914,49.872253 791.199036,54.432632 
	C791.889160,63.034088 788.332336,72.104996 794.097046,80.178993 
	C794.560181,80.827660 794.140869,82.106323 793.793640,83.746284 
	C790.755310,87.073212 789.392273,90.609138 792.073792,95.402977 
M915.923706,126.463623 
	C909.160156,126.678925 902.395142,126.857346 895.634216,127.136642 
	C894.038452,127.202553 892.283447,127.251358 890.900696,127.923393 
	C886.550049,130.037994 884.906921,134.371384 886.757751,138.132477 
	C888.000977,140.658813 892.244324,143.084564 895.208374,143.162628 
	C913.006897,143.631332 930.828369,143.189987 948.631042,143.571625 
	C952.944397,143.664078 956.562744,142.926926 957.856140,139.115845 
	C958.768188,136.428513 958.352600,132.541779 957.013794,129.983917 
	C953.407410,123.093254 948.942627,116.655693 944.902222,109.987602 
	C933.888733,91.811546 922.977661,73.573196 911.903015,55.434605 
	C907.208130,47.745003 904.148010,45.815437 895.301208,52.181553 
	C886.042969,67.768303 876.800232,83.364243 867.521423,98.938721 
	C861.075073,109.759048 854.575989,120.547905 848.107361,131.354950 
	C845.886536,135.065216 844.399475,139.422501 847.230286,142.840973 
	C849.034119,145.019180 852.992126,145.413559 856.755981,146.296432 
	C859.096375,144.273468 862.037109,142.639908 863.653748,140.147507 
	C867.154724,134.749847 869.853333,128.839874 873.102661,123.269264 
	C881.341614,109.144394 889.703308,95.091095 898.684509,80.824890 
	C899.907288,78.921501 901.130127,77.018120 902.674011,74.614876 
	C904.298523,76.654305 905.882507,78.268349 907.017395,80.152786 
	C908.862183,83.216072 910.290344,86.528954 912.111267,89.608192 
	C917.540222,98.788643 923.284241,107.789139 928.498657,117.087875 
	C932.393005,124.032455 932.112244,124.189903 925.307800,127.285515 
	C924.871216,127.190964 924.434692,127.096413 923.956665,126.433777 
	C923.633179,126.616646 923.309692,126.799515 922.337463,127.189224 
	C921.891663,127.130119 921.445862,127.071014 920.648987,126.286293 
	C919.341248,126.327225 918.033447,126.368156 915.923706,126.463623 
M147.582703,114.137779 
	C146.135056,114.137779 144.687408,114.137779 143.331833,114.137779 
	C141.841965,122.225250 136.054214,125.135239 129.528809,127.082108 
	C120.541382,129.763535 111.383217,129.316391 102.242104,128.077515 
	C95.398552,127.150024 88.339020,125.687187 84.805336,119.163704 
	C81.859467,113.725372 80.449089,107.455276 78.181145,101.052460 
	C106.021446,101.052460 132.380600,101.052460 159.427551,101.052460 
	C158.839661,94.923241 158.652908,89.643715 157.777222,84.481033 
	C155.306213,69.913155 147.446198,59.445087 133.436539,54.083389 
	C122.864174,50.037197 111.850212,49.381279 100.723694,50.620228 
	C85.906525,52.270126 73.263153,57.708675 65.862747,71.701653 
	C59.409622,83.903496 59.441422,96.784912 61.575165,110.000885 
	C63.425240,121.459885 69.066277,130.497940 79.035492,136.071243 
	C84.609169,139.187210 91.085335,141.158524 97.399696,142.385117 
	C111.888191,145.199570 126.350052,144.984375 140.543793,139.995361 
	C150.517105,136.489822 156.931763,129.966690 159.569031,119.703377 
	C160.805511,114.891426 159.221207,112.852509 154.233917,113.248047 
	C152.302109,113.401253 150.392502,113.834290 147.582703,114.137779 
M492.947754,142.379166 
	C503.895569,140.089142 511.680725,134.202148 515.272522,123.238106 
	C517.595764,116.146530 516.408508,114.145523 509.296936,114.139252 
	C507.798462,114.137932 506.073761,113.651520 504.855164,114.232124 
	C503.079834,115.077995 501.502533,116.534172 500.137787,118.005577 
	C497.477112,120.874260 495.565125,125.386314 492.359009,126.584427 
	C487.153229,128.529831 481.081879,129.324051 475.505707,128.899506 
	C457.197144,127.505577 452.585297,118.692039 452.233734,101.159546 
	C473.063812,101.159546 493.903656,101.159546 515.516846,101.159546 
	C514.726929,94.735435 514.291992,89.232147 513.337219,83.820572 
	C510.960297,70.348915 505.792023,58.792767 491.800476,53.433403 
	C479.351318,48.664837 466.770844,49.037560 454.578308,53.484913 
	C444.623932,57.115887 438.340118,64.954514 436.281830,75.446457 
	C434.004730,87.053680 434.210724,98.764412 436.121399,110.464241 
	C437.219421,117.187843 439.585480,123.376694 443.334778,128.990814 
	C449.104980,137.630981 458.013763,141.495499 467.702637,142.688187 
	C475.761414,143.680206 484.044403,142.850998 492.947754,142.379166 
M745.018250,119.527390 
	C744.953430,105.745819 745.289246,91.944916 744.625671,78.192230 
	C744.362366,72.735771 742.883057,66.819344 740.211731,62.100540 
	C733.684021,50.569408 721.655212,50.044968 710.433289,50.416927 
	C701.730591,50.705383 693.109375,53.453236 685.624146,54.883842 
	C682.926941,53.788681 680.842041,52.396603 678.643433,52.184814 
	C675.768311,51.907864 672.796631,52.513691 669.886719,52.894520 
	C669.585510,52.933937 669.260437,54.012558 669.219177,54.627316 
	C668.822693,60.527382 668.406799,66.427971 668.147949,72.335045 
	C667.713013,82.257629 667.570251,92.196007 666.971558,102.107628 
	C666.239929,114.219978 665.266296,126.320770 664.171387,138.406082 
	C663.875793,141.668289 665.385681,142.960266 668.075012,143.638672 
	C677.067749,145.907166 680.899719,142.878922 680.589844,133.813568 
	C680.561829,132.993866 680.782715,132.168686 680.837341,131.342682 
	C681.838928,116.183197 682.867859,101.025398 683.816406,85.862579 
	C684.489624,75.100395 689.766113,68.298134 700.016907,65.369865 
	C702.208862,64.743706 704.480408,64.207802 706.743958,64.055176 
	C713.793457,63.579838 724.157166,63.821930 727.154724,71.912186 
	C729.032471,76.980080 728.954285,82.939720 728.964172,88.500648 
	C728.991394,103.779037 728.411011,119.058655 728.450073,134.336823 
	C728.473145,143.327866 730.193970,144.554657 739.229431,143.882874 
	C739.394653,143.870590 739.566589,143.918320 739.728333,143.892899 
	C743.130310,143.358276 745.435547,142.238419 745.121277,137.917557 
	C744.701721,132.149704 744.995667,126.329941 745.018250,119.527390 
M218.083649,121.550117 
	C213.464401,128.318115 208.845154,135.086121 203.489288,142.933411 
	C210.072632,142.933411 214.736633,143.102570 219.373596,142.823181 
	C220.649521,142.746307 222.220963,141.598404 223.016449,140.484619 
	C228.575119,132.701691 233.721252,124.614418 239.474655,116.982834 
	C245.992249,108.337593 246.247986,108.676567 252.212723,118.206711 
	C257.214996,126.199104 262.844330,133.799637 268.229462,141.550430 
	C268.583160,142.059479 269.217194,142.713287 269.729279,142.720734 
	C275.441925,142.804047 281.156250,142.773285 287.558014,142.773285 
	C286.530884,140.605942 286.108612,139.161362 285.268097,138.026596 
	C276.379059,126.025642 267.480316,114.030891 258.451477,102.135178 
	C255.752090,98.578682 254.032608,95.184166 256.931702,90.943863 
	C262.300232,83.091652 267.693939,75.254066 272.903870,67.296928 
	C275.959747,62.629700 278.681213,57.743526 282.067383,52.098530 
	C276.435577,52.098530 272.417816,52.405720 268.471985,52.004696 
	C265.105713,51.662567 263.356995,53.155247 261.896606,55.770855 
	C258.941803,61.062908 256.054993,66.402466 252.855301,71.545197 
	C250.255585,75.723595 247.240051,79.643288 244.339920,83.776070 
	C237.531784,75.165771 231.177353,67.365196 225.111313,59.346470 
	C222.527542,55.930984 221.193985,51.482399 215.474976,51.994465 
	C211.083450,52.387669 206.628510,52.072750 202.201782,52.072750 
	C201.966248,52.614815 201.730713,53.156879 201.495178,53.698944 
	C204.034027,56.655594 206.645508,59.553394 209.097748,62.580215 
	C215.777084,70.824600 222.440201,79.083282 229.005707,87.418259 
	C232.158981,91.421371 236.444824,95.257263 232.487198,101.130692 
	C230.487259,104.098755 228.644928,107.181145 226.515869,110.052055 
	C223.807739,113.703857 220.881241,117.193710 218.083649,121.550117 
M388.496887,131.826797 
	C389.537689,126.830978 390.578461,121.835159 391.723297,116.340019 
	C386.283661,116.340019 382.333282,116.340019 378.364807,116.340019 
	C376.786255,122.080559 376.474365,128.050049 368.279785,129.758163 
	C359.328979,131.623917 352.194427,128.515686 352.022461,120.066345 
	C351.657440,102.129997 351.911102,84.181046 351.911102,65.301559 
	C363.391876,65.301559 374.532471,65.301559 385.927368,65.301559 
	C385.927368,60.321789 385.927368,56.280159 385.927368,52.062160 
	C375.998291,52.062160 366.848907,52.062630 357.699524,52.061935 
	C353.838409,52.061646 351.454773,50.816013 351.815247,46.262798 
	C352.129700,42.291023 352.155273,38.242859 351.731476,34.290306 
	C351.539673,32.500969 350.019348,29.452908 348.981689,29.401556 
	C344.818329,29.195536 340.606384,29.924652 336.421600,30.390690 
	C336.271881,30.407366 336.134918,31.293165 336.133575,31.774296 
	C336.114868,38.469856 336.120911,45.165482 336.120911,52.256702 
	C330.536957,52.256702 325.441315,52.256702 320.450958,52.256702 
	C320.450958,56.701611 320.450958,60.749008 320.450958,64.791718 
	C325.820007,65.085175 330.793427,65.357018 336.109711,65.647591 
	C336.109711,67.126472 336.108459,68.940620 336.109894,70.754768 
	C336.122131,86.077011 335.981873,101.401520 336.209198,116.720573 
	C336.330505,124.895912 337.255585,132.949036 344.331909,138.718277 
	C350.399872,143.665375 357.454315,143.844345 364.824951,144.046951 
	C374.870453,144.323074 382.151123,140.039154 388.496887,131.826797 
M563.069031,99.490440 
	C562.780396,110.682899 562.344421,121.874084 562.247009,133.068207 
	C562.160156,143.040009 562.756226,143.695633 572.396362,143.874130 
	C577.894592,143.975922 578.834961,142.859406 578.844360,137.188324 
	C578.874084,119.369431 578.358643,101.527786 579.107727,83.739311 
	C579.645325,70.973709 584.886719,63.827854 598.146301,63.865162 
	C604.877808,63.884098 606.639771,65.497360 608.167236,72.131935 
	C608.543457,73.766014 609.153748,76.379463 610.164001,76.650436 
	C613.970764,77.671486 618.072449,79.189903 621.869629,76.104919 
	C621.869629,73.405746 621.892212,70.745247 621.865112,68.085251 
	C621.803284,62.023312 619.421326,57.061722 614.096863,54.096512 
	C603.767273,48.343857 593.178162,49.022411 582.802002,53.973644 
	C580.117737,55.254520 578.298584,56.078350 576.758667,52.786816 
	C576.541382,52.322392 575.398132,52.110672 574.676392,52.094208 
	C571.680481,52.025867 568.643555,51.805901 565.703735,52.221806 
	C564.570496,52.382118 562.807739,54.066162 562.782043,55.092346 
	C562.636597,60.893593 563.011047,66.705238 563.057739,72.514557 
	C563.127380,81.173752 563.071594,89.833961 563.069031,99.490440 
z"/>
<path fill="#F5F4F5" opacity="1.000000" stroke="none" 
	d="
M148.027740,114.138809 
	C150.392502,113.834290 152.302109,113.401253 154.233917,113.248047 
	C159.221207,112.852509 160.805511,114.891426 159.569031,119.703377 
	C156.931763,129.966690 150.517105,136.489822 140.543793,139.995361 
	C126.350052,144.984375 111.888191,145.199570 97.399696,142.385117 
	C91.085335,141.158524 84.609169,139.187210 79.035492,136.071243 
	C69.066277,130.497940 63.425240,121.459885 61.575165,110.000885 
	C59.441422,96.784912 59.409622,83.903496 65.862747,71.701653 
	C73.263153,57.708675 85.906525,52.270126 100.723694,50.620228 
	C111.850212,49.381279 122.864174,50.037197 133.436539,54.083389 
	C147.446198,59.445087 155.306213,69.913155 157.777222,84.481033 
	C158.652908,89.643715 158.839661,94.923241 159.427551,101.052460 
	C132.380600,101.052460 106.021446,101.052460 78.181145,101.052460 
	C80.449089,107.455276 81.859467,113.725372 84.805336,119.163704 
	C88.339020,125.687187 95.398552,127.150024 102.242104,128.077515 
	C111.383217,129.316391 120.541382,129.763535 129.528809,127.082108 
	C136.054214,125.135239 141.841965,122.225250 143.331833,114.137779 
	C144.687408,114.137779 146.135056,114.137779 148.027740,114.138809 
M135.936691,86.838135 
	C137.324783,86.466766 138.712875,86.095398 140.174347,85.704399 
	C139.828751,84.381691 139.366379,83.168030 139.208389,81.915962 
	C138.290359,74.640892 134.519073,70.123093 127.506805,67.357094 
	C117.891960,63.564522 108.194611,62.807278 98.361053,65.024208 
	C89.722206,66.971794 82.630814,71.131401 80.807289,81.044121 
	C79.765472,86.707428 79.754860,87.056046 85.671257,87.065178 
	C102.127243,87.090584 118.583305,87.068428 135.936691,86.838135 
z"/>
<path fill="#F5F4F4" opacity="1.000000" stroke="none" 
	d="
M492.587891,142.603821 
	C484.044403,142.850998 475.761414,143.680206 467.702637,142.688187 
	C458.013763,141.495499 449.104980,137.630981 443.334778,128.990814 
	C439.585480,123.376694 437.219421,117.187843 436.121399,110.464241 
	C434.210724,98.764412 434.004730,87.053680 436.281830,75.446457 
	C438.340118,64.954514 444.623932,57.115887 454.578308,53.484913 
	C466.770844,49.037560 479.351318,48.664837 491.800476,53.433403 
	C505.792023,58.792767 510.960297,70.348915 513.337219,83.820572 
	C514.291992,89.232147 514.726929,94.735435 515.516846,101.159546 
	C493.903656,101.159546 473.063812,101.159546 452.233734,101.159546 
	C452.585297,118.692039 457.197144,127.505577 475.505707,128.899506 
	C481.081879,129.324051 487.153229,128.529831 492.359009,126.584427 
	C495.565125,125.386314 497.477112,120.874260 500.137787,118.005577 
	C501.502533,116.534172 503.079834,115.077995 504.855164,114.232124 
	C506.073761,113.651520 507.798462,114.137932 509.296936,114.139252 
	C516.408508,114.145523 517.595764,116.146530 515.272522,123.238106 
	C511.680725,134.202148 503.895569,140.089142 492.587891,142.603821 
M471.568176,63.817009 
	C458.190521,64.112289 450.112762,72.823006 452.280731,86.392029 
	C466.766052,86.392029 481.333588,86.392029 497.267792,86.392029 
	C495.943939,81.329102 495.623688,76.815186 493.646851,73.209496 
	C489.137482,64.984474 480.970520,63.724834 471.568176,63.817009 
z"/>
<path fill="#E5E8EB" opacity="1.000000" stroke="none" 
	d="
M895.966553,51.972019 
	C904.148010,45.815437 907.208130,47.745003 911.903015,55.434605 
	C922.977661,73.573196 933.888733,91.811546 944.902222,109.987602 
	C948.942627,116.655693 953.407410,123.093254 957.013794,129.983917 
	C958.352600,132.541779 958.768188,136.428513 957.856140,139.115845 
	C956.562744,142.926926 952.944397,143.664078 948.631042,143.571625 
	C930.828369,143.189987 913.006897,143.631332 895.208374,143.162628 
	C892.244324,143.084564 888.000977,140.658813 886.757751,138.132477 
	C884.906921,134.371384 886.550049,130.037994 890.900696,127.923393 
	C892.283447,127.251358 894.038452,127.202553 895.634216,127.136642 
	C902.395142,126.857346 909.160156,126.678925 916.401489,126.754730 
	C918.252930,127.034531 919.626465,127.023216 921.000061,127.011902 
	C921.445862,127.071014 921.891663,127.130119 922.913391,127.165161 
	C923.658936,127.094688 923.828491,127.048286 923.998108,127.001877 
	C924.434692,127.096413 924.871216,127.190964 925.676270,127.631119 
	C929.999573,128.344482 933.954529,128.712250 939.349243,129.213898 
	C926.761719,108.182991 915.016846,88.560097 903.272034,68.937195 
	C902.751953,68.968903 902.231934,69.000603 901.711853,69.032303 
	C900.479858,73.024567 899.247803,77.016838 898.015808,81.009109 
	C889.703308,95.091095 881.341614,109.144394 873.102661,123.269264 
	C869.853333,128.839874 867.154724,134.749847 863.653748,140.147507 
	C862.037109,142.639908 859.096375,144.273468 856.454346,145.953613 
	C855.561584,145.046631 855.059021,144.157883 854.365723,143.968781 
	C847.781128,142.172897 846.416870,139.025772 849.776550,133.044708 
	C850.753174,131.306061 851.787964,129.599670 852.813660,127.889023 
	C866.904053,104.390602 881.028748,80.912567 895.015015,57.352394 
	C895.884949,55.887054 895.674377,53.780327 895.966553,51.972019 
z"/>
<path fill="#F3F3F3" opacity="1.000000" stroke="none" 
	d="
M745.000732,120.029930 
	C744.995667,126.329941 744.701721,132.149704 745.121277,137.917557 
	C745.435547,142.238419 743.130310,143.358276 739.728333,143.892899 
	C739.566589,143.918320 739.394653,143.870590 739.229431,143.882874 
	C730.193970,144.554657 728.473145,143.327866 728.450073,134.336823 
	C728.411011,119.058655 728.991394,103.779037 728.964172,88.500648 
	C728.954285,82.939720 729.032471,76.980080 727.154724,71.912186 
	C724.157166,63.821930 713.793457,63.579838 706.743958,64.055176 
	C704.480408,64.207802 702.208862,64.743706 700.016907,65.369865 
	C689.766113,68.298134 684.489624,75.100395 683.816406,85.862579 
	C682.867859,101.025398 681.838928,116.183197 680.837341,131.342682 
	C680.782715,132.168686 680.561829,132.993866 680.589844,133.813568 
	C680.899719,142.878922 677.067749,145.907166 668.075012,143.638672 
	C665.385681,142.960266 663.875793,141.668289 664.171387,138.406082 
	C665.266296,126.320770 666.239929,114.219978 666.971558,102.107628 
	C667.570251,92.196007 667.713013,82.257629 668.147949,72.335045 
	C668.406799,66.427971 668.822693,60.527382 669.219177,54.627316 
	C669.260437,54.012558 669.585510,52.933937 669.886719,52.894520 
	C672.796631,52.513691 675.768311,51.907864 678.643433,52.184814 
	C680.842041,52.396603 682.926941,53.788681 685.624146,54.883842 
	C693.109375,53.453236 701.730591,50.705383 710.433289,50.416927 
	C721.655212,50.044968 733.684021,50.569408 740.211731,62.100540 
	C742.883057,66.819344 744.362366,72.735771 744.625671,78.192230 
	C745.289246,91.944916 744.953430,105.745819 745.000732,120.029930 
z"/>
<path fill="#F4F4F4" opacity="1.000000" stroke="none" 
	d="
M218.066254,121.151749 
	C220.881241,117.193710 223.807739,113.703857 226.515869,110.052055 
	C228.644928,107.181145 230.487259,104.098755 232.487198,101.130692 
	C236.444824,95.257263 232.158981,91.421371 229.005707,87.418259 
	C222.440201,79.083282 215.777084,70.824600 209.097748,62.580215 
	C206.645508,59.553394 204.034027,56.655594 201.495178,53.698944 
	C201.730713,53.156879 201.966248,52.614815 202.201782,52.072750 
	C206.628510,52.072750 211.083450,52.387669 215.474976,51.994465 
	C221.193985,51.482399 222.527542,55.930984 225.111313,59.346470 
	C231.177353,67.365196 237.531784,75.165771 244.339920,83.776070 
	C247.240051,79.643288 250.255585,75.723595 252.855301,71.545197 
	C256.054993,66.402466 258.941803,61.062908 261.896606,55.770855 
	C263.356995,53.155247 265.105713,51.662567 268.471985,52.004696 
	C272.417816,52.405720 276.435577,52.098530 282.067383,52.098530 
	C278.681213,57.743526 275.959747,62.629700 272.903870,67.296928 
	C267.693939,75.254066 262.300232,83.091652 256.931702,90.943863 
	C254.032608,95.184166 255.752090,98.578682 258.451477,102.135178 
	C267.480316,114.030891 276.379059,126.025642 285.268097,138.026596 
	C286.108612,139.161362 286.530884,140.605942 287.558014,142.773285 
	C281.156250,142.773285 275.441925,142.804047 269.729279,142.720734 
	C269.217194,142.713287 268.583160,142.059479 268.229462,141.550430 
	C262.844330,133.799637 257.214996,126.199104 252.212723,118.206711 
	C246.247986,108.676567 245.992249,108.337593 239.474655,116.982834 
	C233.721252,124.614418 228.575119,132.701691 223.016449,140.484619 
	C222.220963,141.598404 220.649521,142.746307 219.373596,142.823181 
	C214.736633,143.102570 210.072632,142.933411 203.489288,142.933411 
	C208.845154,135.086121 213.464401,128.318115 218.066254,121.151749 
z"/>
<path fill="#F4F3F3" opacity="1.000000" stroke="none" 
	d="
M388.222290,132.096588 
	C382.151123,140.039154 374.870453,144.323074 364.824951,144.046951 
	C357.454315,143.844345 350.399872,143.665375 344.331909,138.718277 
	C337.255585,132.949036 336.330505,124.895912 336.209198,116.720573 
	C335.981873,101.401520 336.122131,86.077011 336.109894,70.754768 
	C336.108459,68.940620 336.109711,67.126472 336.109711,65.647591 
	C330.793427,65.357018 325.820007,65.085175 320.450958,64.791718 
	C320.450958,60.749008 320.450958,56.701611 320.450958,52.256702 
	C325.441315,52.256702 330.536957,52.256702 336.120911,52.256702 
	C336.120911,45.165482 336.114868,38.469856 336.133575,31.774296 
	C336.134918,31.293165 336.271881,30.407366 336.421600,30.390690 
	C340.606384,29.924652 344.818329,29.195536 348.981689,29.401556 
	C350.019348,29.452908 351.539673,32.500969 351.731476,34.290306 
	C352.155273,38.242859 352.129700,42.291023 351.815247,46.262798 
	C351.454773,50.816013 353.838409,52.061646 357.699524,52.061935 
	C366.848907,52.062630 375.998291,52.062160 385.927368,52.062160 
	C385.927368,56.280159 385.927368,60.321789 385.927368,65.301559 
	C374.532471,65.301559 363.391876,65.301559 351.911102,65.301559 
	C351.911102,84.181046 351.657440,102.129997 352.022461,120.066345 
	C352.194427,128.515686 359.328979,131.623917 368.279785,129.758163 
	C376.474365,128.050049 376.786255,122.080559 378.364807,116.340019 
	C382.333282,116.340019 386.283661,116.340019 391.723297,116.340019 
	C390.578461,121.835159 389.537689,126.830978 388.222290,132.096588 
z"/>
<path fill="#F4F3F4" opacity="1.000000" stroke="none" 
	d="
M563.069092,98.992088 
	C563.071594,89.833961 563.127380,81.173752 563.057739,72.514557 
	C563.011047,66.705238 562.636597,60.893593 562.782043,55.092346 
	C562.807739,54.066162 564.570496,52.382118 565.703735,52.221806 
	C568.643555,51.805901 571.680481,52.025867 574.676392,52.094208 
	C575.398132,52.110672 576.541382,52.322392 576.758667,52.786816 
	C578.298584,56.078350 580.117737,55.254520 582.802002,53.973644 
	C593.178162,49.022411 603.767273,48.343857 614.096863,54.096512 
	C619.421326,57.061722 621.803284,62.023312 621.865112,68.085251 
	C621.892212,70.745247 621.869629,73.405746 621.869629,76.104919 
	C618.072449,79.189903 613.970764,77.671486 610.164001,76.650436 
	C609.153748,76.379463 608.543457,73.766014 608.167236,72.131935 
	C606.639771,65.497360 604.877808,63.884098 598.146301,63.865162 
	C584.886719,63.827854 579.645325,70.973709 579.107727,83.739311 
	C578.358643,101.527786 578.874084,119.369431 578.844360,137.188324 
	C578.834961,142.859406 577.894592,143.975922 572.396362,143.874130 
	C562.756226,143.695633 562.160156,143.040009 562.247009,133.068207 
	C562.344421,121.874084 562.780396,110.682899 563.069092,98.992088 
z"/>
<path fill="#DFE0E3" opacity="1.000000" stroke="none" 
	d="
M802.048340,101.941017 
	C804.689453,104.043221 805.100708,106.826691 805.042480,110.053177 
	C804.868347,119.716255 804.882141,129.385788 805.024109,139.049850 
	C805.073792,142.432297 803.791626,145.245468 800.727051,145.731522 
	C797.271423,146.279587 793.196167,146.128311 792.205627,141.212463 
	C791.854553,139.470139 791.372498,137.707809 791.359436,135.951584 
	C791.295166,127.286896 791.273926,118.619133 791.462341,109.957344 
	C791.506470,107.928825 792.424438,105.919304 793.507324,103.485229 
	C796.732300,102.693275 799.390320,102.317146 802.048340,101.941017 
z"/>
<path fill="#EAEBEE" opacity="1.000000" stroke="none" 
	d="
M791.949158,53.998177 
	C793.073914,49.872253 796.239441,48.102970 799.841736,49.345425 
	C802.815125,50.370995 805.885925,52.289574 805.109131,56.996254 
	C804.416382,61.193829 805.228638,65.618759 804.844055,69.895462 
	C804.578674,72.846344 803.405762,75.715630 801.981079,78.629028 
	C793.036316,76.658043 792.971558,76.472679 792.781616,68.138588 
	C792.674133,63.421242 792.237549,58.711399 791.949158,53.998177 
z"/>
<path fill="#7E7B7C" opacity="1.000000" stroke="none" 
	d="
M813.153137,141.010254 
	C813.153137,141.010254 813.000488,140.588043 812.987183,140.045364 
	C812.967346,139.289841 812.960815,139.077011 812.954224,138.864166 
	C812.954224,138.864166 812.961670,138.504990 812.966370,137.997955 
	C812.962036,137.272827 812.953003,137.054749 812.943909,136.836655 
	C812.943909,136.836655 812.979553,136.389297 813.310059,135.877594 
	C814.084106,132.124023 815.012817,128.857788 814.851624,125.646286 
	C814.637878,121.388428 813.572693,117.173325 812.873413,112.939850 
	C812.902405,111.920448 812.931335,110.901047 812.964478,109.199982 
	C812.963257,108.319153 812.957947,108.119995 812.952698,107.920837 
	C812.952698,107.920837 812.986328,107.991898 813.301697,107.935799 
	C814.083740,106.917259 814.550415,105.954811 815.297363,104.852386 
	C817.023315,104.479889 818.468872,104.247383 819.914490,104.014877 
	C820.934875,105.026978 822.722778,105.953781 822.846313,107.065590 
	C823.469238,112.668167 823.740540,118.316048 823.941040,123.954933 
	C823.990845,125.355049 823.318542,126.780853 822.551392,128.694778 
	C821.467957,131.329529 819.754883,133.831772 820.346436,135.532425 
	C822.373291,141.360031 818.664001,142.426376 814.667725,143.614578 
	C814.667725,143.614578 814.484680,143.529007 814.607422,143.134674 
	C814.204468,142.163651 813.678833,141.586945 813.153137,141.010254 
z"/>
<path fill="#807B7C" opacity="1.000000" stroke="none" 
	d="
M816.972412,81.991447 
	C813.540894,78.984543 811.928711,75.669441 812.766357,70.699402 
	C813.518555,66.236137 812.195129,61.450867 812.673828,56.900909 
	C812.885315,54.890862 814.915100,52.445415 816.790161,51.396606 
	C819.105713,50.101414 821.796204,50.954494 822.486755,54.126167 
	C823.160400,57.220131 824.142029,60.441223 823.865417,63.505157 
	C823.376099,68.926949 822.120117,74.290443 820.949951,79.626793 
	C820.794128,80.337448 819.266846,80.747345 817.956787,81.641159 
	C817.350037,81.987671 817.161255,81.989563 816.972412,81.991447 
z"/>
<path fill="#747378" opacity="1.000000" stroke="none" 
	d="
M895.633911,52.076786 
	C895.674377,53.780327 895.884949,55.887054 895.015015,57.352394 
	C881.028748,80.912567 866.904053,104.390602 852.813660,127.889023 
	C851.787964,129.599670 850.753174,131.306061 849.776550,133.044708 
	C846.416870,139.025772 847.781128,142.172897 854.365723,143.968781 
	C855.059021,144.157883 855.561584,145.046631 856.068420,146.109283 
	C852.992126,145.413559 849.034119,145.019180 847.230286,142.840973 
	C844.399475,139.422501 845.886536,135.065216 848.107361,131.354950 
	C854.575989,120.547905 861.075073,109.759048 867.521423,98.938721 
	C876.800232,83.364243 886.042969,67.768303 895.633911,52.076786 
z"/>
<path fill="#707175" opacity="1.000000" stroke="none" 
	d="
M898.350159,80.916992 
	C899.247803,77.016838 900.479858,73.024567 901.711853,69.032303 
	C902.231934,69.000603 902.751953,68.968903 903.272034,68.937195 
	C915.016846,88.560097 926.761719,108.182991 939.349243,129.213898 
	C933.954529,128.712250 929.999573,128.344482 926.012085,127.585228 
	C932.112244,124.189903 932.393005,124.032455 928.498657,117.087875 
	C923.284241,107.789139 917.540222,98.788643 912.111267,89.608192 
	C910.290344,86.528954 908.862183,83.216072 907.017395,80.152786 
	C905.882507,78.268349 904.298523,76.654305 902.674011,74.614876 
	C901.130127,77.018120 899.907288,78.921501 898.350159,80.916992 
z"/>
<path fill="#7A7476" opacity="1.000000" stroke="none" 
	d="
M816.632935,82.081833 
	C817.161255,81.989563 817.350037,81.987671 817.821899,81.978363 
	C825.034607,85.927803 824.455566,93.253784 821.608948,98.513535 
	C820.806213,99.996696 820.317505,101.649826 819.799622,103.619926 
	C818.468872,104.247383 817.023315,104.479889 815.012817,104.845505 
	C814.258545,104.970268 814.069092,104.961922 813.879700,104.953575 
	C815.324524,101.594337 814.105835,99.037621 812.761475,95.683647 
	C811.018677,91.335800 811.806763,85.815674 816.632935,82.081833 
z"/>
<path fill="#4C4949" opacity="1.000000" stroke="none" 
	d="
M783.758789,112.944031 
	C783.823364,121.692574 783.943665,130.441437 783.895386,139.189362 
	C783.887756,140.579010 783.121277,141.964462 782.062012,143.651306 
	C780.521606,143.230423 778.898193,142.556778 778.848389,141.781921 
	C778.567444,137.413452 778.436523,133.006714 778.703674,128.640518 
	C778.925049,125.023048 779.934143,121.398460 776.206299,118.763390 
	C777.627747,117.356377 778.863892,116.204918 780.368652,114.898613 
	C781.677795,114.143852 782.718323,113.543945 783.758789,112.944031 
z"/>
<path fill="#F3F2F7" opacity="1.000000" stroke="none" 
	d="
M801.867004,83.092209 
	C805.341919,87.133972 804.426636,91.649033 802.802979,96.747116 
	C799.027283,96.434669 795.727600,95.564247 792.427856,94.693832 
	C789.392273,90.609138 790.755310,87.073212 794.393555,83.410492 
	C797.284668,83.080536 799.575806,83.086372 801.867004,83.092209 
z"/>
<path fill="#544A50" opacity="1.000000" stroke="none" 
	d="
M773.858765,85.880371 
	C774.327881,83.798546 774.796997,81.716713 775.431885,79.214935 
	C777.444702,78.884277 779.291870,78.973541 781.138977,79.062805 
	C781.194763,80.684631 780.587830,83.099472 781.418640,83.793823 
	C785.459229,87.170662 785.122559,92.095459 783.408508,95.199219 
	C780.825134,99.876938 781.289978,103.360756 783.452515,107.610321 
	C779.951782,106.907532 776.851013,105.907875 773.750305,104.908218 
	C773.969177,102.815727 774.188110,100.723221 774.731323,98.289474 
	C777.233826,96.812561 779.722778,95.991394 781.392639,94.341278 
	C781.866882,93.872658 780.297546,90.678162 779.044250,89.297646 
	C777.696350,87.813019 775.618225,86.991325 773.858765,85.880371 
z"/>
<path fill="#605D5E" opacity="1.000000" stroke="none" 
	d="
M776.021118,119.018936 
	C779.934143,121.398460 778.925049,125.023048 778.703674,128.640518 
	C778.436523,133.006714 778.567444,137.413452 778.848389,141.781921 
	C778.898193,142.556778 780.521606,143.230423 781.787720,143.915237 
	C775.744690,146.565872 773.089722,144.971451 773.038879,138.319321 
	C772.994446,132.506546 773.044922,126.693039 773.431641,120.397614 
	C774.546936,119.616562 775.283997,119.317749 776.021118,119.018936 
z"/>
<path fill="#7B7778" opacity="1.000000" stroke="none" 
	d="
M773.211731,66.995239 
	C773.125549,64.007698 773.073120,61.018711 772.944885,58.032986 
	C772.784302,54.293648 773.882751,51.271751 778.113220,51.159206 
	C782.576538,51.040462 784.068542,53.969929 783.851685,58.049820 
	C783.816406,58.713318 783.808960,59.378292 783.415588,60.516510 
	C781.700500,62.001572 780.358459,63.012711 778.721802,64.158035 
	C777.345642,65.408447 776.339417,66.620262 775.129333,67.573357 
	C774.828552,67.810287 773.868652,67.210457 773.211731,66.995239 
z"/>
<path fill="#8B878B" opacity="1.000000" stroke="none" 
	d="
M801.897217,82.681877 
	C799.575806,83.086372 797.284668,83.080536 794.562561,83.083466 
	C794.140869,82.106323 794.560181,80.827660 794.097046,80.178993 
	C788.332336,72.104996 791.889160,63.034088 791.574097,54.215405 
	C792.237549,58.711399 792.674133,63.421242 792.781616,68.138588 
	C792.971558,76.472679 793.036316,76.658043 801.653015,78.808868 
	C801.963989,80.077888 801.945679,81.174713 801.897217,82.681877 
z"/>
<path fill="#72656E" opacity="1.000000" stroke="none" 
	d="
M773.534729,86.148712 
	C775.618225,86.991325 777.696350,87.813019 779.044250,89.297646 
	C780.297546,90.678162 781.866882,93.872658 781.392639,94.341278 
	C779.722778,95.991394 777.233826,96.812561 774.673096,97.928459 
	C773.930603,94.078140 773.570618,90.247597 773.534729,86.148712 
z"/>
<path fill="#605D5E" opacity="1.000000" stroke="none" 
	d="
M773.138000,67.443619 
	C773.868652,67.210457 774.828552,67.810287 775.129333,67.573357 
	C776.339417,66.620262 777.345642,65.408447 778.718872,64.602470 
	C779.002625,67.209557 779.408936,69.604080 778.895386,71.781693 
	C777.992371,75.610977 779.551270,76.969337 783.053345,77.062996 
	C782.580200,77.639282 782.107117,78.215576 781.386475,78.927338 
	C779.291870,78.973541 777.444702,78.884277 775.281128,78.905533 
	C774.331177,75.308029 773.697693,71.600014 773.138000,67.443619 
z"/>
<path fill="#524C4E" opacity="1.000000" stroke="none" 
	d="
M783.360596,76.772263 
	C779.551270,76.969337 777.992371,75.610977 778.895386,71.781693 
	C779.408936,69.604080 779.002625,67.209557 779.013489,64.468277 
	C780.358459,63.012711 781.700500,62.001572 783.355774,60.923759 
	C783.668640,66.065231 783.668213,71.273384 783.360596,76.772263 
z"/>
<path fill="#605D5E" opacity="1.000000" stroke="none" 
	d="
M773.495911,105.074432 
	C776.851013,105.907875 779.951782,106.907532 783.394714,107.973068 
	C783.786804,109.403709 783.836670,110.768463 783.822632,112.538628 
	C782.718323,113.543945 781.677795,114.143852 780.152344,114.617111 
	C776.982178,112.806244 774.126770,111.233856 774.919495,107.264519 
	C774.366150,107.178070 773.812805,107.091621 773.259460,107.005180 
	C773.253479,106.417007 773.247498,105.828827 773.495911,105.074432 
z"/>
<path fill="#878082" opacity="1.000000" stroke="none" 
	d="
M812.542236,113.211090 
	C813.572693,117.173325 814.637878,121.388428 814.851624,125.646286 
	C815.012817,128.857788 814.084106,132.124023 813.377014,135.663422 
	C812.812744,128.468079 812.511902,120.975204 812.542236,113.211090 
z"/>
<path fill="#878082" opacity="1.000000" stroke="none" 
	d="
M814.781250,143.902954 
	C818.664001,142.426376 822.373291,141.360031 820.346436,135.532425 
	C819.754883,133.831772 821.467957,131.329529 822.477600,129.103867 
	C822.890808,133.108856 823.571838,137.319305 822.842529,141.269348 
	C822.060791,145.503510 819.008667,146.277344 814.781250,143.902954 
z"/>
<path fill="#747378" opacity="1.000000" stroke="none" 
	d="
M773.194214,107.463943 
	C773.812805,107.091621 774.366150,107.178070 774.919495,107.264519 
	C774.126770,111.233856 776.982178,112.806244 779.883667,114.771973 
	C778.863892,116.204918 777.627747,117.356377 776.206299,118.763382 
	C775.283997,119.317749 774.546936,119.616562 773.510681,119.931839 
	C773.184021,115.939774 773.156494,111.931236 773.194214,107.463943 
z"/>
<path fill="#72656E" opacity="1.000000" stroke="none" 
	d="
M792.250854,95.048401 
	C795.727600,95.564247 799.027283,96.434669 802.621643,97.109657 
	C802.631409,98.338860 802.346558,99.763504 802.054993,101.564575 
	C799.390320,102.317146 796.732300,102.693275 793.692261,103.152023 
	C792.898010,100.624084 792.485901,98.013527 792.250854,95.048401 
z"/>
<path fill="#707175" opacity="1.000000" stroke="none" 
	d="
M920.824524,126.649094 
	C919.626465,127.023216 918.252930,127.034531 916.802490,126.727463 
	C918.033447,126.368156 919.341248,126.327225 920.824524,126.649094 
z"/>
<path fill="#878082" opacity="1.000000" stroke="none" 
	d="
M813.598755,105.137146 
	C814.069092,104.961922 814.258545,104.970268 814.732544,104.985489 
	C814.550415,105.954811 814.083740,106.917259 813.266357,107.918640 
	C813.049683,107.078621 813.183777,106.199661 813.598755,105.137146 
z"/>
<path fill="#878082" opacity="1.000000" stroke="none" 
	d="
M813.107483,141.318298 
	C813.678833,141.586945 814.204468,142.163651 814.553589,143.049103 
	C813.938721,142.780701 813.500305,142.203537 813.107483,141.318298 
z"/>
<path fill="#878082" opacity="1.000000" stroke="none" 
	d="
M812.750793,108.030487 
	C812.957947,108.119995 812.963257,108.319153 812.965271,108.817268 
	C812.824219,108.790863 812.686523,108.465500 812.750793,108.030487 
z"/>
<path fill="#707175" opacity="1.000000" stroke="none" 
	d="
M923.977417,126.717827 
	C923.828491,127.048286 923.658936,127.094688 923.237793,127.061737 
	C923.309692,126.799515 923.633179,126.616646 923.977417,126.717827 
z"/>
<path fill="#878082" opacity="1.000000" stroke="none" 
	d="
M812.718506,136.960297 
	C812.953003,137.054749 812.962036,137.272827 812.960876,137.818390 
	C812.798157,137.791916 812.645630,137.437927 812.718506,136.960297 
z"/>
<path fill="#878082" opacity="1.000000" stroke="none" 
	d="
M812.723999,138.976822 
	C812.960815,139.077011 812.967346,139.289841 812.963013,139.822189 
	C812.799438,139.790955 812.646606,139.440216 812.723999,138.976822 
z"/>
<path fill="#000000" opacity="1.000000" stroke="none" 
	d="
M135.488007,86.951599 
	C118.583305,87.068428 102.127243,87.090584 85.671257,87.065178 
	C79.754860,87.056046 79.765472,86.707428 80.807289,81.044121 
	C82.630814,71.131401 89.722206,66.971794 98.361053,65.024208 
	C108.194611,62.807278 117.891960,63.564522 127.506805,67.357094 
	C134.519073,70.123093 138.290359,74.640892 139.208389,81.915962 
	C139.366379,83.168030 139.828751,84.381691 140.174347,85.704399 
	C138.712875,86.095398 137.324783,86.466766 135.488007,86.951599 
z"/>
<path fill="#000000" opacity="1.000000" stroke="none" 
	d="
M472.016785,63.815872 
	C480.970520,63.724834 489.137482,64.984474 493.646851,73.209496 
	C495.623688,76.815186 495.943939,81.329102 497.267792,86.392029 
	C481.333588,86.392029 466.766052,86.392029 452.280731,86.392029 
	C450.112762,72.823006 458.190521,64.112289 472.016785,63.815872 
z"/>
</svg>